# xmcd
#
# Track frame offsets:
#	150
#	13122
#	24986
#	36452
#	49839
#	60530
#	72396
#	83387
#	96282
#	106377
#	117911
#	127773
#	140399
#	150439
#	162923
#	172945
#	185897
#	197483
#	208653
#	218779
#	229881
#	240416
#	250760
#	264128
#	274868
#	286524
#
# Disc length: 3980 seconds
#
# Revision: 1
# Processed by: cddbd v1.5.2PL0 Copyright (c) Steve Scherf et al.
# Submitted via: audiograbber 1.83.01
#
DISCID=5e0f8a1a
DTITLE=Eddy Arnold - Complete US Chart Singles 1945-1962 Disc 2
DYEAR=2014
DGENRE=Pop-Country
TTITLE0=Take Me In Your Arms And Hold Me (RCA 21-0146) 1949
TTITLE1=Mama And Daddy Broke My Heart (RCA 21-0146) 1949
TTITLE2=Little Angel With The Dirty Face (RCA 21-0300) 1950
TTITLE3=Why Should I Cry (RCA 21-0300) 1950
TTITLE4=Cuddle Buggin' Baby (RCA 21-342) 1950
TTITLE5=Enclosed, One Broken Heart (RCA 21-0342) 1950
TTITLE6=The Lovebug Itch (RCA 21-0382) 1950
TTITLE7=A Prison Without Walls (RCA 21-0382) 1950
TTITLE8=There's Been A Change In Me (RCA 21-0412) 1951
TTITLE9=Kentucky Waltz (RCA 21-0444) 1951
TTITLE10=I Wanna Play House With You (RCA 21-0476) 1951
TTITLE11=Something Old, Something New (RCA 21-0476) 1951
TTITLE12=Somebody's Been Beatin' My Time (RCA 20-4273) 1951
TTITLE13=Heart Strings (RCA 20-4273) 1951
TTITLE14=Bundle Of Southern Sunshine (RCA 20-4413) 1951
TTITLE15=Call Her Your Sweetheart (RCA 20-4413) 1951
TTITLE16=Easy On The Eyes (RCA 20-4569) 1952
TTITLE17=A Full Time Job (RCA 20-4787) 1952
TTITLE18=Older And Bolder (RCA 20-4954) 1952
TTITLE19=I'd Trade All Of My Tomorrows (For Just One Yesterday) (RCA 20-4954) 1
TTITLE19=952
TTITLE20=Eddy's Song (RCA 20-5108) 1952
TTITLE21=Free Hoe Demonstration (RCA 20-5305) 1953
TTITLE22=How's The World Treating You (RCA 20-5305) 1953
TTITLE23=Mama, Come Get Your Baby Boy (RCA 20-5415) 1953
TTITLE24=I Really Don't Want To Know (RCA 20-5525) 1953
TTITLE25=My Everything (RCA 20-5634) 1954
EXTD=Disc 2 of 3
EXTT0=
EXTT1=
EXTT2=
EXTT3=
EXTT4=
EXTT5=
EXTT6=
EXTT7=
EXTT8=
EXTT9=
EXTT10=
EXTT11=
EXTT12=
EXTT13=
EXTT14=
EXTT15=
EXTT16=
EXTT17=
EXTT18=
EXTT19=
EXTT20=
EXTT21=
EXTT22=
EXTT23=
EXTT24=
EXTT25=
PLAYORDER=
